<?xml version="1.0" encoding="UTF-8" standalone="no"?>
<!DOCTYPE svg PUBLIC "-//W3C//DTD SVG 1.1//EN"
 "http://www.w3.org/Graphics/SVG/1.1/DTD/svg11.dtd">
<!-- Generated by graphviz version 2.43.0 (0)
 -->
<!-- Title: t Pages: 1 -->
<svg width="634pt" height="1700pt"
 viewBox="0.00 0.00 634.00 1700.00" xmlns="http://www.w3.org/2000/svg" xmlns:xlink="http://www.w3.org/1999/xlink">
<g id="graph0" class="graph" transform="scale(1 1) rotate(0) translate(4 1696)">
<title>t</title>
<polygon fill="white" stroke="transparent" points="-4,4 -4,-1696 630,-1696 630,4 -4,4"/>
<!-- node_0 -->
<g id="node1" class="node">
<title>node_0</title>
<ellipse fill="none" stroke="black" cx="181" cy="-1674" rx="27" ry="18"/>
<text text-anchor="middle" x="181" y="-1670.3" font-family="Times,serif" font-size="14.00">S</text>
</g>
<!-- node_1 -->
<g id="node2" class="node">
<title>node_1</title>
<ellipse fill="none" stroke="black" cx="181" cy="-1602" rx="27" ry="18"/>
<text text-anchor="middle" x="181" y="-1598.3" font-family="Times,serif" font-size="14.00">NE</text>
</g>
<!-- node_0&#45;&gt;node_1 -->
<g id="edge88" class="edge">
<title>node_0&#45;&gt;node_1</title>
<path fill="none" stroke="black" d="M181,-1655.7C181,-1647.98 181,-1638.71 181,-1630.11"/>
<polygon fill="black" stroke="black" points="184.5,-1630.1 181,-1620.1 177.5,-1630.1 184.5,-1630.1"/>
</g>
<!-- node_2 -->
<g id="node3" class="node">
<title>node_2</title>
<ellipse fill="none" stroke="black" cx="73" cy="-1530" rx="27" ry="18"/>
<text text-anchor="middle" x="73" y="-1526.3" font-family="Times,serif" font-size="14.00">(</text>
</g>
<!-- node_1&#45;&gt;node_2 -->
<g id="edge1" class="edge">
<title>node_1&#45;&gt;node_2</title>
<path fill="none" stroke="black" d="M162.19,-1588.81C145,-1577.67 119.38,-1561.06 100.01,-1548.5"/>
<polygon fill="black" stroke="black" points="101.89,-1545.56 91.6,-1543.05 98.08,-1551.43 101.89,-1545.56"/>
</g>
<!-- node_3 -->
<g id="node4" class="node">
<title>node_3</title>
<ellipse fill="none" stroke="black" cx="145" cy="-1530" rx="27" ry="18"/>
<text text-anchor="middle" x="145" y="-1526.3" font-family="Times,serif" font-size="14.00">NE</text>
</g>
<!-- node_1&#45;&gt;node_3 -->
<g id="edge36" class="edge">
<title>node_1&#45;&gt;node_3</title>
<path fill="none" stroke="black" d="M172.65,-1584.76C168.29,-1576.28 162.85,-1565.71 157.96,-1556.2"/>
<polygon fill="black" stroke="black" points="160.99,-1554.44 153.3,-1547.15 154.77,-1557.64 160.99,-1554.44"/>
</g>
<!-- node_38 -->
<g id="node39" class="node">
<title>node_38</title>
<ellipse fill="none" stroke="black" cx="217" cy="-1530" rx="27" ry="18"/>
<text text-anchor="middle" x="217" y="-1526.3" font-family="Times,serif" font-size="14.00">)</text>
</g>
<!-- node_1&#45;&gt;node_38 -->
<g id="edge37" class="edge">
<title>node_1&#45;&gt;node_38</title>
<path fill="none" stroke="black" d="M189.35,-1584.76C193.71,-1576.28 199.15,-1565.71 204.04,-1556.2"/>
<polygon fill="black" stroke="black" points="207.23,-1557.64 208.7,-1547.15 201.01,-1554.44 207.23,-1557.64"/>
</g>
<!-- node_39 -->
<g id="node40" class="node">
<title>node_39</title>
<ellipse fill="none" stroke="black" cx="289" cy="-1530" rx="27" ry="18"/>
<text text-anchor="middle" x="289" y="-1526.3" font-family="Times,serif" font-size="14.00">K</text>
</g>
<!-- node_1&#45;&gt;node_39 -->
<g id="edge87" class="edge">
<title>node_1&#45;&gt;node_39</title>
<path fill="none" stroke="black" d="M199.81,-1588.81C217,-1577.67 242.62,-1561.06 261.99,-1548.5"/>
<polygon fill="black" stroke="black" points="263.92,-1551.43 270.4,-1543.05 260.11,-1545.56 263.92,-1551.43"/>
</g>
<!-- node_4 -->
<g id="node5" class="node">
<title>node_4</title>
<ellipse fill="none" stroke="black" cx="75" cy="-1458" rx="27" ry="18"/>
<text text-anchor="middle" x="75" y="-1454.3" font-family="Times,serif" font-size="14.00">h</text>
</g>
<!-- node_3&#45;&gt;node_4 -->
<g id="edge2" class="edge">
<title>node_3&#45;&gt;node_4</title>
<path fill="none" stroke="black" d="M130.5,-1514.5C120.73,-1504.73 107.69,-1491.69 96.7,-1480.7"/>
<polygon fill="black" stroke="black" points="99.03,-1478.08 89.49,-1473.49 94.08,-1483.03 99.03,-1478.08"/>
</g>
<!-- node_5 -->
<g id="node6" class="node">
<title>node_5</title>
<ellipse fill="none" stroke="black" cx="147" cy="-1458" rx="27" ry="18"/>
<text text-anchor="middle" x="147" y="-1454.3" font-family="Times,serif" font-size="14.00">K</text>
</g>
<!-- node_3&#45;&gt;node_5 -->
<g id="edge35" class="edge">
<title>node_3&#45;&gt;node_5</title>
<path fill="none" stroke="black" d="M145.49,-1511.7C145.71,-1503.98 145.98,-1494.71 146.23,-1486.11"/>
<polygon fill="black" stroke="black" points="149.72,-1486.2 146.51,-1476.1 142.73,-1486 149.72,-1486.2"/>
</g>
<!-- node_6 -->
<g id="node7" class="node">
<title>node_6</title>
<ellipse fill="none" stroke="black" cx="147" cy="-1386" rx="27" ry="18"/>
<text text-anchor="middle" x="147" y="-1382.3" font-family="Times,serif" font-size="14.00">T</text>
</g>
<!-- node_5&#45;&gt;node_6 -->
<g id="edge34" class="edge">
<title>node_5&#45;&gt;node_6</title>
<path fill="none" stroke="black" d="M147,-1439.7C147,-1431.98 147,-1422.71 147,-1414.11"/>
<polygon fill="black" stroke="black" points="150.5,-1414.1 147,-1404.1 143.5,-1414.1 150.5,-1414.1"/>
</g>
<!-- node_7 -->
<g id="node8" class="node">
<title>node_7</title>
<ellipse fill="none" stroke="black" cx="147" cy="-1314" rx="27" ry="18"/>
<text text-anchor="middle" x="147" y="-1310.3" font-family="Times,serif" font-size="14.00">S</text>
</g>
<!-- node_6&#45;&gt;node_7 -->
<g id="edge33" class="edge">
<title>node_6&#45;&gt;node_7</title>
<path fill="none" stroke="black" d="M147,-1367.7C147,-1359.98 147,-1350.71 147,-1342.11"/>
<polygon fill="black" stroke="black" points="150.5,-1342.1 147,-1332.1 143.5,-1342.1 150.5,-1342.1"/>
</g>
<!-- node_8 -->
<g id="node9" class="node">
<title>node_8</title>
<ellipse fill="none" stroke="black" cx="147" cy="-1242" rx="27" ry="18"/>
<text text-anchor="middle" x="147" y="-1238.3" font-family="Times,serif" font-size="14.00">NE</text>
</g>
<!-- node_7&#45;&gt;node_8 -->
<g id="edge32" class="edge">
<title>node_7&#45;&gt;node_8</title>
<path fill="none" stroke="black" d="M147,-1295.7C147,-1287.98 147,-1278.71 147,-1270.11"/>
<polygon fill="black" stroke="black" points="150.5,-1270.1 147,-1260.1 143.5,-1270.1 150.5,-1270.1"/>
</g>
<!-- node_9 -->
<g id="node10" class="node">
<title>node_9</title>
<ellipse fill="none" stroke="black" cx="77" cy="-1170" rx="27" ry="18"/>
<text text-anchor="middle" x="77" y="-1166.3" font-family="Times,serif" font-size="14.00">e</text>
</g>
<!-- node_8&#45;&gt;node_9 -->
<g id="edge3" class="edge">
<title>node_8&#45;&gt;node_9</title>
<path fill="none" stroke="black" d="M132.5,-1226.5C122.73,-1216.73 109.69,-1203.69 98.7,-1192.7"/>
<polygon fill="black" stroke="black" points="101.03,-1190.08 91.49,-1185.49 96.08,-1195.03 101.03,-1190.08"/>
</g>
<!-- node_10 -->
<g id="node11" class="node">
<title>node_10</title>
<ellipse fill="none" stroke="black" cx="149" cy="-1170" rx="27" ry="18"/>
<text text-anchor="middle" x="149" y="-1166.3" font-family="Times,serif" font-size="14.00">K</text>
</g>
<!-- node_8&#45;&gt;node_10 -->
<g id="edge31" class="edge">
<title>node_8&#45;&gt;node_10</title>
<path fill="none" stroke="black" d="M147.49,-1223.7C147.71,-1215.98 147.98,-1206.71 148.23,-1198.11"/>
<polygon fill="black" stroke="black" points="151.72,-1198.2 148.51,-1188.1 144.73,-1198 151.72,-1198.2"/>
</g>
<!-- node_11 -->
<g id="node12" class="node">
<title>node_11</title>
<ellipse fill="none" stroke="black" cx="149" cy="-1098" rx="27" ry="18"/>
<text text-anchor="middle" x="149" y="-1094.3" font-family="Times,serif" font-size="14.00">T</text>
</g>
<!-- node_10&#45;&gt;node_11 -->
<g id="edge30" class="edge">
<title>node_10&#45;&gt;node_11</title>
<path fill="none" stroke="black" d="M149,-1151.7C149,-1143.98 149,-1134.71 149,-1126.11"/>
<polygon fill="black" stroke="black" points="152.5,-1126.1 149,-1116.1 145.5,-1126.1 152.5,-1126.1"/>
</g>
<!-- node_12 -->
<g id="node13" class="node">
<title>node_12</title>
<ellipse fill="none" stroke="black" cx="149" cy="-1026" rx="27" ry="18"/>
<text text-anchor="middle" x="149" y="-1022.3" font-family="Times,serif" font-size="14.00">S</text>
</g>
<!-- node_11&#45;&gt;node_12 -->
<g id="edge29" class="edge">
<title>node_11&#45;&gt;node_12</title>
<path fill="none" stroke="black" d="M149,-1079.7C149,-1071.98 149,-1062.71 149,-1054.11"/>
<polygon fill="black" stroke="black" points="152.5,-1054.1 149,-1044.1 145.5,-1054.1 152.5,-1054.1"/>
</g>
<!-- node_13 -->
<g id="node14" class="node">
<title>node_13</title>
<ellipse fill="none" stroke="black" cx="149" cy="-954" rx="27" ry="18"/>
<text text-anchor="middle" x="149" y="-950.3" font-family="Times,serif" font-size="14.00">NE</text>
</g>
<!-- node_12&#45;&gt;node_13 -->
<g id="edge28" class="edge">
<title>node_12&#45;&gt;node_13</title>
<path fill="none" stroke="black" d="M149,-1007.7C149,-999.98 149,-990.71 149,-982.11"/>
<polygon fill="black" stroke="black" points="152.5,-982.1 149,-972.1 145.5,-982.1 152.5,-982.1"/>
</g>
<!-- node_14 -->
<g id="node15" class="node">
<title>node_14</title>
<ellipse fill="none" stroke="black" cx="96" cy="-882" rx="27" ry="18"/>
<text text-anchor="middle" x="96" y="-878.3" font-family="Times,serif" font-size="14.00">l</text>
</g>
<!-- node_13&#45;&gt;node_14 -->
<g id="edge4" class="edge">
<title>node_13&#45;&gt;node_14</title>
<path fill="none" stroke="black" d="M137.24,-937.46C130.38,-928.4 121.58,-916.79 113.88,-906.61"/>
<polygon fill="black" stroke="black" points="116.56,-904.35 107.73,-898.49 110.98,-908.58 116.56,-904.35"/>
</g>
<!-- node_15 -->
<g id="node16" class="node">
<title>node_15</title>
<ellipse fill="none" stroke="black" cx="168" cy="-882" rx="27" ry="18"/>
<text text-anchor="middle" x="168" y="-878.3" font-family="Times,serif" font-size="14.00">K</text>
</g>
<!-- node_13&#45;&gt;node_15 -->
<g id="edge27" class="edge">
<title>node_13&#45;&gt;node_15</title>
<path fill="none" stroke="black" d="M153.6,-936.05C155.75,-928.14 158.35,-918.54 160.76,-909.69"/>
<polygon fill="black" stroke="black" points="164.2,-910.36 163.44,-899.79 157.45,-908.52 164.2,-910.36"/>
</g>
<!-- node_16 -->
<g id="node17" class="node">
<title>node_16</title>
<ellipse fill="none" stroke="black" cx="168" cy="-810" rx="27" ry="18"/>
<text text-anchor="middle" x="168" y="-806.3" font-family="Times,serif" font-size="14.00">T</text>
</g>
<!-- node_15&#45;&gt;node_16 -->
<g id="edge26" class="edge">
<title>node_15&#45;&gt;node_16</title>
<path fill="none" stroke="black" d="M168,-863.7C168,-855.98 168,-846.71 168,-838.11"/>
<polygon fill="black" stroke="black" points="171.5,-838.1 168,-828.1 164.5,-838.1 171.5,-838.1"/>
</g>
<!-- node_17 -->
<g id="node18" class="node">
<title>node_17</title>
<ellipse fill="none" stroke="black" cx="168" cy="-738" rx="27" ry="18"/>
<text text-anchor="middle" x="168" y="-734.3" font-family="Times,serif" font-size="14.00">S</text>
</g>
<!-- node_16&#45;&gt;node_17 -->
<g id="edge25" class="edge">
<title>node_16&#45;&gt;node_17</title>
<path fill="none" stroke="black" d="M168,-791.7C168,-783.98 168,-774.71 168,-766.11"/>
<polygon fill="black" stroke="black" points="171.5,-766.1 168,-756.1 164.5,-766.1 171.5,-766.1"/>
</g>
<!-- node_18 -->
<g id="node19" class="node">
<title>node_18</title>
<ellipse fill="none" stroke="black" cx="168" cy="-666" rx="27" ry="18"/>
<text text-anchor="middle" x="168" y="-662.3" font-family="Times,serif" font-size="14.00">NE</text>
</g>
<!-- node_17&#45;&gt;node_18 -->
<g id="edge24" class="edge">
<title>node_17&#45;&gt;node_18</title>
<path fill="none" stroke="black" d="M168,-719.7C168,-711.98 168,-702.71 168,-694.11"/>
<polygon fill="black" stroke="black" points="171.5,-694.1 168,-684.1 164.5,-694.1 171.5,-694.1"/>
</g>
<!-- node_19 -->
<g id="node20" class="node">
<title>node_19</title>
<ellipse fill="none" stroke="black" cx="27" cy="-594" rx="27" ry="18"/>
<text text-anchor="middle" x="27" y="-590.3" font-family="Times,serif" font-size="14.00">(</text>
</g>
<!-- node_18&#45;&gt;node_19 -->
<g id="edge5" class="edge">
<title>node_18&#45;&gt;node_19</title>
<path fill="none" stroke="black" d="M146.89,-654.52C123.11,-642.72 84.27,-623.43 57.27,-610.03"/>
<polygon fill="black" stroke="black" points="58.77,-606.86 48.25,-605.55 55.65,-613.13 58.77,-606.86"/>
</g>
<!-- node_20 -->
<g id="node21" class="node">
<title>node_20</title>
<ellipse fill="none" stroke="black" cx="99" cy="-594" rx="27" ry="18"/>
<text text-anchor="middle" x="99" y="-590.3" font-family="Times,serif" font-size="14.00">NE</text>
</g>
<!-- node_18&#45;&gt;node_20 -->
<g id="edge12" class="edge">
<title>node_18&#45;&gt;node_20</title>
<path fill="none" stroke="black" d="M153.7,-650.5C144.08,-640.73 131.22,-627.69 120.39,-616.7"/>
<polygon fill="black" stroke="black" points="122.79,-614.15 113.28,-609.49 117.81,-619.06 122.79,-614.15"/>
</g>
<!-- node_27 -->
<g id="node28" class="node">
<title>node_27</title>
<ellipse fill="none" stroke="black" cx="171" cy="-594" rx="27" ry="18"/>
<text text-anchor="middle" x="171" y="-590.3" font-family="Times,serif" font-size="14.00">)</text>
</g>
<!-- node_18&#45;&gt;node_27 -->
<g id="edge13" class="edge">
<title>node_18&#45;&gt;node_27</title>
<path fill="none" stroke="black" d="M168.74,-647.7C169.07,-639.98 169.47,-630.71 169.84,-622.11"/>
<polygon fill="black" stroke="black" points="173.34,-622.25 170.27,-612.1 166.34,-621.95 173.34,-622.25"/>
</g>
<!-- node_28 -->
<g id="node29" class="node">
<title>node_28</title>
<ellipse fill="none" stroke="black" cx="243" cy="-594" rx="27" ry="18"/>
<text text-anchor="middle" x="243" y="-590.3" font-family="Times,serif" font-size="14.00">K</text>
</g>
<!-- node_18&#45;&gt;node_28 -->
<g id="edge23" class="edge">
<title>node_18&#45;&gt;node_28</title>
<path fill="none" stroke="black" d="M183.18,-650.83C193.85,-640.87 208.32,-627.37 220.35,-616.14"/>
<polygon fill="black" stroke="black" points="222.92,-618.53 227.85,-609.14 218.15,-613.41 222.92,-618.53"/>
</g>
<!-- node_21 -->
<g id="node22" class="node">
<title>node_21</title>
<ellipse fill="none" stroke="black" cx="63" cy="-522" rx="27" ry="18"/>
<text text-anchor="middle" x="63" y="-518.3" font-family="Times,serif" font-size="14.00">l</text>
</g>
<!-- node_20&#45;&gt;node_21 -->
<g id="edge6" class="edge">
<title>node_20&#45;&gt;node_21</title>
<path fill="none" stroke="black" d="M90.65,-576.76C86.29,-568.28 80.85,-557.71 75.96,-548.2"/>
<polygon fill="black" stroke="black" points="78.99,-546.44 71.3,-539.15 72.77,-549.64 78.99,-546.44"/>
</g>
<!-- node_22 -->
<g id="node23" class="node">
<title>node_22</title>
<ellipse fill="none" stroke="black" cx="135" cy="-522" rx="27" ry="18"/>
<text text-anchor="middle" x="135" y="-518.3" font-family="Times,serif" font-size="14.00">K</text>
</g>
<!-- node_20&#45;&gt;node_22 -->
<g id="edge11" class="edge">
<title>node_20&#45;&gt;node_22</title>
<path fill="none" stroke="black" d="M107.35,-576.76C111.71,-568.28 117.15,-557.71 122.04,-548.2"/>
<polygon fill="black" stroke="black" points="125.23,-549.64 126.7,-539.15 119.01,-546.44 125.23,-549.64"/>
</g>
<!-- node_23 -->
<g id="node24" class="node">
<title>node_23</title>
<ellipse fill="none" stroke="black" cx="63" cy="-450" rx="27" ry="18"/>
<text text-anchor="middle" x="63" y="-446.3" font-family="Times,serif" font-size="14.00">*</text>
</g>
<!-- node_22&#45;&gt;node_23 -->
<g id="edge7" class="edge">
<title>node_22&#45;&gt;node_23</title>
<path fill="none" stroke="black" d="M120.43,-506.83C110.25,-496.94 96.48,-483.55 84.97,-472.36"/>
<polygon fill="black" stroke="black" points="87.41,-469.85 77.8,-465.38 82.53,-474.87 87.41,-469.85"/>
</g>
<!-- node_24 -->
<g id="node25" class="node">
<title>node_24</title>
<ellipse fill="none" stroke="black" cx="135" cy="-450" rx="27" ry="18"/>
<text text-anchor="middle" x="135" y="-446.3" font-family="Times,serif" font-size="14.00">T</text>
</g>
<!-- node_22&#45;&gt;node_24 -->
<g id="edge10" class="edge">
<title>node_22&#45;&gt;node_24</title>
<path fill="none" stroke="black" d="M135,-503.7C135,-495.98 135,-486.71 135,-478.11"/>
<polygon fill="black" stroke="black" points="138.5,-478.1 135,-468.1 131.5,-478.1 138.5,-478.1"/>
</g>
<!-- node_25 -->
<g id="node26" class="node">
<title>node_25</title>
<ellipse fill="none" stroke="black" cx="135" cy="-378" rx="27" ry="18"/>
<text text-anchor="middle" x="135" y="-374.3" font-family="Times,serif" font-size="14.00">S</text>
</g>
<!-- node_24&#45;&gt;node_25 -->
<g id="edge9" class="edge">
<title>node_24&#45;&gt;node_25</title>
<path fill="none" stroke="black" d="M135,-431.7C135,-423.98 135,-414.71 135,-406.11"/>
<polygon fill="black" stroke="black" points="138.5,-406.1 135,-396.1 131.5,-406.1 138.5,-406.1"/>
</g>
<!-- node_26 -->
<g id="node27" class="node">
<title>node_26</title>
<ellipse fill="none" stroke="black" cx="135" cy="-306" rx="27" ry="18"/>
<text text-anchor="middle" x="135" y="-302.3" font-family="Times,serif" font-size="14.00">eps</text>
</g>
<!-- node_25&#45;&gt;node_26 -->
<g id="edge8" class="edge">
<title>node_25&#45;&gt;node_26</title>
<path fill="none" stroke="black" d="M135,-359.7C135,-351.98 135,-342.71 135,-334.11"/>
<polygon fill="black" stroke="black" points="138.5,-334.1 135,-324.1 131.5,-334.1 138.5,-334.1"/>
</g>
<!-- node_29 -->
<g id="node30" class="node">
<title>node_29</title>
<ellipse fill="none" stroke="black" cx="216" cy="-522" rx="27" ry="18"/>
<text text-anchor="middle" x="216" y="-518.3" font-family="Times,serif" font-size="14.00">*</text>
</g>
<!-- node_28&#45;&gt;node_29 -->
<g id="edge14" class="edge">
<title>node_28&#45;&gt;node_29</title>
<path fill="none" stroke="black" d="M236.6,-576.41C233.49,-568.34 229.67,-558.43 226.17,-549.35"/>
<polygon fill="black" stroke="black" points="229.4,-548.03 222.54,-539.96 222.87,-550.55 229.4,-548.03"/>
</g>
<!-- node_30 -->
<g id="node31" class="node">
<title>node_30</title>
<ellipse fill="none" stroke="black" cx="288" cy="-522" rx="27" ry="18"/>
<text text-anchor="middle" x="288" y="-518.3" font-family="Times,serif" font-size="14.00">T</text>
</g>
<!-- node_28&#45;&gt;node_30 -->
<g id="edge22" class="edge">
<title>node_28&#45;&gt;node_30</title>
<path fill="none" stroke="black" d="M253.21,-577.12C258.85,-568.34 265.97,-557.26 272.3,-547.42"/>
<polygon fill="black" stroke="black" points="275.37,-549.13 277.83,-538.82 269.48,-545.34 275.37,-549.13"/>
</g>
<!-- node_31 -->
<g id="node32" class="node">
<title>node_31</title>
<ellipse fill="none" stroke="black" cx="288" cy="-450" rx="27" ry="18"/>
<text text-anchor="middle" x="288" y="-446.3" font-family="Times,serif" font-size="14.00">S</text>
</g>
<!-- node_30&#45;&gt;node_31 -->
<g id="edge21" class="edge">
<title>node_30&#45;&gt;node_31</title>
<path fill="none" stroke="black" d="M288,-503.7C288,-495.98 288,-486.71 288,-478.11"/>
<polygon fill="black" stroke="black" points="291.5,-478.1 288,-468.1 284.5,-478.1 291.5,-478.1"/>
</g>
<!-- node_32 -->
<g id="node33" class="node">
<title>node_32</title>
<ellipse fill="none" stroke="black" cx="288" cy="-378" rx="27" ry="18"/>
<text text-anchor="middle" x="288" y="-374.3" font-family="Times,serif" font-size="14.00">NE</text>
</g>
<!-- node_31&#45;&gt;node_32 -->
<g id="edge20" class="edge">
<title>node_31&#45;&gt;node_32</title>
<path fill="none" stroke="black" d="M288,-431.7C288,-423.98 288,-414.71 288,-406.11"/>
<polygon fill="black" stroke="black" points="291.5,-406.1 288,-396.1 284.5,-406.1 291.5,-406.1"/>
</g>
<!-- node_33 -->
<g id="node34" class="node">
<title>node_33</title>
<ellipse fill="none" stroke="black" cx="234" cy="-306" rx="27" ry="18"/>
<text text-anchor="middle" x="234" y="-302.3" font-family="Times,serif" font-size="14.00">o</text>
</g>
<!-- node_32&#45;&gt;node_33 -->
<g id="edge15" class="edge">
<title>node_32&#45;&gt;node_33</title>
<path fill="none" stroke="black" d="M276.02,-361.46C269.02,-352.4 260.06,-340.79 252.21,-330.61"/>
<polygon fill="black" stroke="black" points="254.83,-328.27 245.95,-322.49 249.29,-332.55 254.83,-328.27"/>
</g>
<!-- node_34 -->
<g id="node35" class="node">
<title>node_34</title>
<ellipse fill="none" stroke="black" cx="306" cy="-306" rx="27" ry="18"/>
<text text-anchor="middle" x="306" y="-302.3" font-family="Times,serif" font-size="14.00">K</text>
</g>
<!-- node_32&#45;&gt;node_34 -->
<g id="edge19" class="edge">
<title>node_32&#45;&gt;node_34</title>
<path fill="none" stroke="black" d="M292.36,-360.05C294.39,-352.14 296.86,-342.54 299.14,-333.69"/>
<polygon fill="black" stroke="black" points="302.58,-334.35 301.68,-323.79 295.8,-332.6 302.58,-334.35"/>
</g>
<!-- node_35 -->
<g id="node36" class="node">
<title>node_35</title>
<ellipse fill="none" stroke="black" cx="306" cy="-234" rx="27" ry="18"/>
<text text-anchor="middle" x="306" y="-230.3" font-family="Times,serif" font-size="14.00">T</text>
</g>
<!-- node_34&#45;&gt;node_35 -->
<g id="edge18" class="edge">
<title>node_34&#45;&gt;node_35</title>
<path fill="none" stroke="black" d="M306,-287.7C306,-279.98 306,-270.71 306,-262.11"/>
<polygon fill="black" stroke="black" points="309.5,-262.1 306,-252.1 302.5,-262.1 309.5,-262.1"/>
</g>
<!-- node_36 -->
<g id="node37" class="node">
<title>node_36</title>
<ellipse fill="none" stroke="black" cx="306" cy="-162" rx="27" ry="18"/>
<text text-anchor="middle" x="306" y="-158.3" font-family="Times,serif" font-size="14.00">S</text>
</g>
<!-- node_35&#45;&gt;node_36 -->
<g id="edge17" class="edge">
<title>node_35&#45;&gt;node_36</title>
<path fill="none" stroke="black" d="M306,-215.7C306,-207.98 306,-198.71 306,-190.11"/>
<polygon fill="black" stroke="black" points="309.5,-190.1 306,-180.1 302.5,-190.1 309.5,-190.1"/>
</g>
<!-- node_37 -->
<g id="node38" class="node">
<title>node_37</title>
<ellipse fill="none" stroke="black" cx="306" cy="-90" rx="27" ry="18"/>
<text text-anchor="middle" x="306" y="-86.3" font-family="Times,serif" font-size="14.00">eps</text>
</g>
<!-- node_36&#45;&gt;node_37 -->
<g id="edge16" class="edge">
<title>node_36&#45;&gt;node_37</title>
<path fill="none" stroke="black" d="M306,-143.7C306,-135.98 306,-126.71 306,-118.11"/>
<polygon fill="black" stroke="black" points="309.5,-118.1 306,-108.1 302.5,-118.1 309.5,-118.1"/>
</g>
<!-- node_40 -->
<g id="node41" class="node">
<title>node_40</title>
<ellipse fill="none" stroke="black" cx="289" cy="-1458" rx="27" ry="18"/>
<text text-anchor="middle" x="289" y="-1454.3" font-family="Times,serif" font-size="14.00">T</text>
</g>
<!-- node_39&#45;&gt;node_40 -->
<g id="edge86" class="edge">
<title>node_39&#45;&gt;node_40</title>
<path fill="none" stroke="black" d="M289,-1511.7C289,-1503.98 289,-1494.71 289,-1486.11"/>
<polygon fill="black" stroke="black" points="292.5,-1486.1 289,-1476.1 285.5,-1486.1 292.5,-1486.1"/>
</g>
<!-- node_41 -->
<g id="node42" class="node">
<title>node_41</title>
<ellipse fill="none" stroke="black" cx="279" cy="-1386" rx="27" ry="18"/>
<text text-anchor="middle" x="279" y="-1382.3" font-family="Times,serif" font-size="14.00">|</text>
</g>
<!-- node_40&#45;&gt;node_41 -->
<g id="edge38" class="edge">
<title>node_40&#45;&gt;node_41</title>
<path fill="none" stroke="black" d="M286.58,-1440.05C285.48,-1432.35 284.15,-1423.03 282.91,-1414.36"/>
<polygon fill="black" stroke="black" points="286.35,-1413.68 281.47,-1404.28 279.42,-1414.67 286.35,-1413.68"/>
</g>
<!-- node_42 -->
<g id="node43" class="node">
<title>node_42</title>
<ellipse fill="none" stroke="black" cx="351" cy="-1386" rx="27" ry="18"/>
<text text-anchor="middle" x="351" y="-1382.3" font-family="Times,serif" font-size="14.00">NE</text>
</g>
<!-- node_40&#45;&gt;node_42 -->
<g id="edge85" class="edge">
<title>node_40&#45;&gt;node_42</title>
<path fill="none" stroke="black" d="M302.15,-1442.15C310.53,-1432.69 321.56,-1420.24 331.02,-1409.56"/>
<polygon fill="black" stroke="black" points="333.86,-1411.63 337.87,-1401.82 328.62,-1406.99 333.86,-1411.63"/>
</g>
<!-- node_43 -->
<g id="node44" class="node">
<title>node_43</title>
<ellipse fill="none" stroke="black" cx="278" cy="-1314" rx="27" ry="18"/>
<text text-anchor="middle" x="278" y="-1310.3" font-family="Times,serif" font-size="14.00">(</text>
</g>
<!-- node_42&#45;&gt;node_43 -->
<g id="edge39" class="edge">
<title>node_42&#45;&gt;node_43</title>
<path fill="none" stroke="black" d="M336.23,-1370.83C325.84,-1360.87 311.76,-1347.37 300.04,-1336.14"/>
<polygon fill="black" stroke="black" points="302.39,-1333.54 292.75,-1329.14 297.55,-1338.59 302.39,-1333.54"/>
</g>
<!-- node_44 -->
<g id="node45" class="node">
<title>node_44</title>
<ellipse fill="none" stroke="black" cx="350" cy="-1314" rx="27" ry="18"/>
<text text-anchor="middle" x="350" y="-1310.3" font-family="Times,serif" font-size="14.00">NE</text>
</g>
<!-- node_42&#45;&gt;node_44 -->
<g id="edge74" class="edge">
<title>node_42&#45;&gt;node_44</title>
<path fill="none" stroke="black" d="M350.75,-1367.7C350.64,-1359.98 350.51,-1350.71 350.39,-1342.11"/>
<polygon fill="black" stroke="black" points="353.89,-1342.05 350.24,-1332.1 346.89,-1342.15 353.89,-1342.05"/>
</g>
<!-- node_79 -->
<g id="node80" class="node">
<title>node_79</title>
<ellipse fill="none" stroke="black" cx="422" cy="-1314" rx="27" ry="18"/>
<text text-anchor="middle" x="422" y="-1310.3" font-family="Times,serif" font-size="14.00">)</text>
</g>
<!-- node_42&#45;&gt;node_79 -->
<g id="edge75" class="edge">
<title>node_42&#45;&gt;node_79</title>
<path fill="none" stroke="black" d="M365.71,-1370.5C375.61,-1360.73 388.84,-1347.69 399.99,-1336.7"/>
<polygon fill="black" stroke="black" points="402.64,-1339 407.31,-1329.49 397.73,-1334.01 402.64,-1339"/>
</g>
<!-- node_80 -->
<g id="node81" class="node">
<title>node_80</title>
<ellipse fill="none" stroke="black" cx="494" cy="-1314" rx="27" ry="18"/>
<text text-anchor="middle" x="494" y="-1310.3" font-family="Times,serif" font-size="14.00">K</text>
</g>
<!-- node_42&#45;&gt;node_80 -->
<g id="edge84" class="edge">
<title>node_42&#45;&gt;node_80</title>
<path fill="none" stroke="black" d="M372.1,-1374.67C396.29,-1362.83 436.12,-1343.33 463.64,-1329.86"/>
<polygon fill="black" stroke="black" points="465.37,-1332.91 472.81,-1325.37 462.29,-1326.62 465.37,-1332.91"/>
</g>
<!-- node_45 -->
<g id="node46" class="node">
<title>node_45</title>
<ellipse fill="none" stroke="black" cx="302" cy="-1242" rx="27" ry="18"/>
<text text-anchor="middle" x="302" y="-1238.3" font-family="Times,serif" font-size="14.00">w</text>
</g>
<!-- node_44&#45;&gt;node_45 -->
<g id="edge40" class="edge">
<title>node_44&#45;&gt;node_45</title>
<path fill="none" stroke="black" d="M339.11,-1297.12C333.03,-1288.26 325.34,-1277.04 318.54,-1267.12"/>
<polygon fill="black" stroke="black" points="321.39,-1265.09 312.85,-1258.82 315.62,-1269.05 321.39,-1265.09"/>
</g>
<!-- node_46 -->
<g id="node47" class="node">
<title>node_46</title>
<ellipse fill="none" stroke="black" cx="374" cy="-1242" rx="27" ry="18"/>
<text text-anchor="middle" x="374" y="-1238.3" font-family="Times,serif" font-size="14.00">K</text>
</g>
<!-- node_44&#45;&gt;node_46 -->
<g id="edge73" class="edge">
<title>node_44&#45;&gt;node_46</title>
<path fill="none" stroke="black" d="M355.81,-1296.05C358.55,-1288.06 361.89,-1278.33 364.95,-1269.4"/>
<polygon fill="black" stroke="black" points="368.31,-1270.38 368.24,-1259.79 361.69,-1268.11 368.31,-1270.38"/>
</g>
<!-- node_47 -->
<g id="node48" class="node">
<title>node_47</title>
<ellipse fill="none" stroke="black" cx="374" cy="-1170" rx="27" ry="18"/>
<text text-anchor="middle" x="374" y="-1166.3" font-family="Times,serif" font-size="14.00">T</text>
</g>
<!-- node_46&#45;&gt;node_47 -->
<g id="edge72" class="edge">
<title>node_46&#45;&gt;node_47</title>
<path fill="none" stroke="black" d="M374,-1223.7C374,-1215.98 374,-1206.71 374,-1198.11"/>
<polygon fill="black" stroke="black" points="377.5,-1198.1 374,-1188.1 370.5,-1198.1 377.5,-1198.1"/>
</g>
<!-- node_48 -->
<g id="node49" class="node">
<title>node_48</title>
<ellipse fill="none" stroke="black" cx="374" cy="-1098" rx="27" ry="18"/>
<text text-anchor="middle" x="374" y="-1094.3" font-family="Times,serif" font-size="14.00">S</text>
</g>
<!-- node_47&#45;&gt;node_48 -->
<g id="edge71" class="edge">
<title>node_47&#45;&gt;node_48</title>
<path fill="none" stroke="black" d="M374,-1151.7C374,-1143.98 374,-1134.71 374,-1126.11"/>
<polygon fill="black" stroke="black" points="377.5,-1126.1 374,-1116.1 370.5,-1126.1 377.5,-1126.1"/>
</g>
<!-- node_49 -->
<g id="node50" class="node">
<title>node_49</title>
<ellipse fill="none" stroke="black" cx="374" cy="-1026" rx="27" ry="18"/>
<text text-anchor="middle" x="374" y="-1022.3" font-family="Times,serif" font-size="14.00">NE</text>
</g>
<!-- node_48&#45;&gt;node_49 -->
<g id="edge70" class="edge">
<title>node_48&#45;&gt;node_49</title>
<path fill="none" stroke="black" d="M374,-1079.7C374,-1071.98 374,-1062.71 374,-1054.11"/>
<polygon fill="black" stroke="black" points="377.5,-1054.1 374,-1044.1 370.5,-1054.1 377.5,-1054.1"/>
</g>
<!-- node_50 -->
<g id="node51" class="node">
<title>node_50</title>
<ellipse fill="none" stroke="black" cx="254" cy="-954" rx="27" ry="18"/>
<text text-anchor="middle" x="254" y="-950.3" font-family="Times,serif" font-size="14.00">(</text>
</g>
<!-- node_49&#45;&gt;node_50 -->
<g id="edge41" class="edge">
<title>node_49&#45;&gt;node_50</title>
<path fill="none" stroke="black" d="M354.18,-1013.44C334.73,-1002.09 304.84,-984.66 282.77,-971.78"/>
<polygon fill="black" stroke="black" points="284.25,-968.59 273.84,-966.58 280.72,-974.64 284.25,-968.59"/>
</g>
<!-- node_51 -->
<g id="node52" class="node">
<title>node_51</title>
<ellipse fill="none" stroke="black" cx="326" cy="-954" rx="27" ry="18"/>
<text text-anchor="middle" x="326" y="-950.3" font-family="Times,serif" font-size="14.00">NE</text>
</g>
<!-- node_49&#45;&gt;node_51 -->
<g id="edge64" class="edge">
<title>node_49&#45;&gt;node_51</title>
<path fill="none" stroke="black" d="M363.11,-1009.12C357.03,-1000.26 349.34,-989.04 342.54,-979.12"/>
<polygon fill="black" stroke="black" points="345.39,-977.09 336.85,-970.82 339.62,-981.05 345.39,-977.09"/>
</g>
<!-- node_74 -->
<g id="node75" class="node">
<title>node_74</title>
<ellipse fill="none" stroke="black" cx="398" cy="-954" rx="27" ry="18"/>
<text text-anchor="middle" x="398" y="-950.3" font-family="Times,serif" font-size="14.00">)</text>
</g>
<!-- node_49&#45;&gt;node_74 -->
<g id="edge65" class="edge">
<title>node_49&#45;&gt;node_74</title>
<path fill="none" stroke="black" d="M379.81,-1008.05C382.55,-1000.06 385.89,-990.33 388.95,-981.4"/>
<polygon fill="black" stroke="black" points="392.31,-982.38 392.24,-971.79 385.69,-980.11 392.31,-982.38"/>
</g>
<!-- node_75 -->
<g id="node76" class="node">
<title>node_75</title>
<ellipse fill="none" stroke="black" cx="470" cy="-954" rx="27" ry="18"/>
<text text-anchor="middle" x="470" y="-950.3" font-family="Times,serif" font-size="14.00">K</text>
</g>
<!-- node_49&#45;&gt;node_75 -->
<g id="edge69" class="edge">
<title>node_49&#45;&gt;node_75</title>
<path fill="none" stroke="black" d="M391.61,-1012.16C406.36,-1001.41 427.61,-985.91 444.27,-973.76"/>
<polygon fill="black" stroke="black" points="446.49,-976.48 452.5,-967.76 442.36,-970.82 446.49,-976.48"/>
</g>
<!-- node_52 -->
<g id="node53" class="node">
<title>node_52</title>
<ellipse fill="none" stroke="black" cx="317" cy="-882" rx="27" ry="18"/>
<text text-anchor="middle" x="317" y="-878.3" font-family="Times,serif" font-size="14.00">o</text>
</g>
<!-- node_51&#45;&gt;node_52 -->
<g id="edge42" class="edge">
<title>node_51&#45;&gt;node_52</title>
<path fill="none" stroke="black" d="M323.82,-936.05C322.83,-928.35 321.63,-919.03 320.52,-910.36"/>
<polygon fill="black" stroke="black" points="323.97,-909.75 319.22,-900.28 317.02,-910.64 323.97,-909.75"/>
</g>
<!-- node_53 -->
<g id="node54" class="node">
<title>node_53</title>
<ellipse fill="none" stroke="black" cx="389" cy="-882" rx="27" ry="18"/>
<text text-anchor="middle" x="389" y="-878.3" font-family="Times,serif" font-size="14.00">K</text>
</g>
<!-- node_51&#45;&gt;node_53 -->
<g id="edge63" class="edge">
<title>node_51&#45;&gt;node_53</title>
<path fill="none" stroke="black" d="M339.36,-938.15C347.88,-928.69 359.09,-916.24 368.69,-905.56"/>
<polygon fill="black" stroke="black" points="371.57,-907.6 375.66,-897.82 366.37,-902.92 371.57,-907.6"/>
</g>
<!-- node_54 -->
<g id="node55" class="node">
<title>node_54</title>
<ellipse fill="none" stroke="black" cx="389" cy="-810" rx="27" ry="18"/>
<text text-anchor="middle" x="389" y="-806.3" font-family="Times,serif" font-size="14.00">T</text>
</g>
<!-- node_53&#45;&gt;node_54 -->
<g id="edge62" class="edge">
<title>node_53&#45;&gt;node_54</title>
<path fill="none" stroke="black" d="M389,-863.7C389,-855.98 389,-846.71 389,-838.11"/>
<polygon fill="black" stroke="black" points="392.5,-838.1 389,-828.1 385.5,-838.1 392.5,-838.1"/>
</g>
<!-- node_55 -->
<g id="node56" class="node">
<title>node_55</title>
<ellipse fill="none" stroke="black" cx="389" cy="-738" rx="27" ry="18"/>
<text text-anchor="middle" x="389" y="-734.3" font-family="Times,serif" font-size="14.00">S</text>
</g>
<!-- node_54&#45;&gt;node_55 -->
<g id="edge61" class="edge">
<title>node_54&#45;&gt;node_55</title>
<path fill="none" stroke="black" d="M389,-791.7C389,-783.98 389,-774.71 389,-766.11"/>
<polygon fill="black" stroke="black" points="392.5,-766.1 389,-756.1 385.5,-766.1 392.5,-766.1"/>
</g>
<!-- node_56 -->
<g id="node57" class="node">
<title>node_56</title>
<ellipse fill="none" stroke="black" cx="389" cy="-666" rx="27" ry="18"/>
<text text-anchor="middle" x="389" y="-662.3" font-family="Times,serif" font-size="14.00">NE</text>
</g>
<!-- node_55&#45;&gt;node_56 -->
<g id="edge60" class="edge">
<title>node_55&#45;&gt;node_56</title>
<path fill="none" stroke="black" d="M389,-719.7C389,-711.98 389,-702.71 389,-694.11"/>
<polygon fill="black" stroke="black" points="392.5,-694.1 389,-684.1 385.5,-694.1 392.5,-694.1"/>
</g>
<!-- node_57 -->
<g id="node58" class="node">
<title>node_57</title>
<ellipse fill="none" stroke="black" cx="385" cy="-594" rx="27" ry="18"/>
<text text-anchor="middle" x="385" y="-590.3" font-family="Times,serif" font-size="14.00">r</text>
</g>
<!-- node_56&#45;&gt;node_57 -->
<g id="edge43" class="edge">
<title>node_56&#45;&gt;node_57</title>
<path fill="none" stroke="black" d="M388.01,-647.7C387.57,-639.98 387.04,-630.71 386.55,-622.11"/>
<polygon fill="black" stroke="black" points="390.04,-621.89 385.98,-612.1 383.05,-622.29 390.04,-621.89"/>
</g>
<!-- node_58 -->
<g id="node59" class="node">
<title>node_58</title>
<ellipse fill="none" stroke="black" cx="457" cy="-594" rx="27" ry="18"/>
<text text-anchor="middle" x="457" y="-590.3" font-family="Times,serif" font-size="14.00">K</text>
</g>
<!-- node_56&#45;&gt;node_58 -->
<g id="edge59" class="edge">
<title>node_56&#45;&gt;node_58</title>
<path fill="none" stroke="black" d="M403.09,-650.5C412.57,-640.73 425.24,-627.69 435.92,-616.7"/>
<polygon fill="black" stroke="black" points="438.47,-619.1 442.93,-609.49 433.45,-614.22 438.47,-619.1"/>
</g>
<!-- node_59 -->
<g id="node60" class="node">
<title>node_59</title>
<ellipse fill="none" stroke="black" cx="457" cy="-522" rx="27" ry="18"/>
<text text-anchor="middle" x="457" y="-518.3" font-family="Times,serif" font-size="14.00">T</text>
</g>
<!-- node_58&#45;&gt;node_59 -->
<g id="edge58" class="edge">
<title>node_58&#45;&gt;node_59</title>
<path fill="none" stroke="black" d="M457,-575.7C457,-567.98 457,-558.71 457,-550.11"/>
<polygon fill="black" stroke="black" points="460.5,-550.1 457,-540.1 453.5,-550.1 460.5,-550.1"/>
</g>
<!-- node_60 -->
<g id="node61" class="node">
<title>node_60</title>
<ellipse fill="none" stroke="black" cx="457" cy="-450" rx="27" ry="18"/>
<text text-anchor="middle" x="457" y="-446.3" font-family="Times,serif" font-size="14.00">S</text>
</g>
<!-- node_59&#45;&gt;node_60 -->
<g id="edge57" class="edge">
<title>node_59&#45;&gt;node_60</title>
<path fill="none" stroke="black" d="M457,-503.7C457,-495.98 457,-486.71 457,-478.11"/>
<polygon fill="black" stroke="black" points="460.5,-478.1 457,-468.1 453.5,-478.1 460.5,-478.1"/>
</g>
<!-- node_61 -->
<g id="node62" class="node">
<title>node_61</title>
<ellipse fill="none" stroke="black" cx="457" cy="-378" rx="27" ry="18"/>
<text text-anchor="middle" x="457" y="-374.3" font-family="Times,serif" font-size="14.00">NE</text>
</g>
<!-- node_60&#45;&gt;node_61 -->
<g id="edge56" class="edge">
<title>node_60&#45;&gt;node_61</title>
<path fill="none" stroke="black" d="M457,-431.7C457,-423.98 457,-414.71 457,-406.11"/>
<polygon fill="black" stroke="black" points="460.5,-406.1 457,-396.1 453.5,-406.1 460.5,-406.1"/>
</g>
<!-- node_62 -->
<g id="node63" class="node">
<title>node_62</title>
<ellipse fill="none" stroke="black" cx="383" cy="-306" rx="27" ry="18"/>
<text text-anchor="middle" x="383" y="-302.3" font-family="Times,serif" font-size="14.00">(</text>
</g>
<!-- node_61&#45;&gt;node_62 -->
<g id="edge44" class="edge">
<title>node_61&#45;&gt;node_62</title>
<path fill="none" stroke="black" d="M442.02,-362.83C431.49,-352.87 417.22,-339.37 405.34,-328.14"/>
<polygon fill="black" stroke="black" points="407.62,-325.47 397.95,-321.14 402.81,-330.56 407.62,-325.47"/>
</g>
<!-- node_63 -->
<g id="node64" class="node">
<title>node_63</title>
<ellipse fill="none" stroke="black" cx="455" cy="-306" rx="27" ry="18"/>
<text text-anchor="middle" x="455" y="-302.3" font-family="Times,serif" font-size="14.00">NE</text>
</g>
<!-- node_61&#45;&gt;node_63 -->
<g id="edge50" class="edge">
<title>node_61&#45;&gt;node_63</title>
<path fill="none" stroke="black" d="M456.51,-359.7C456.29,-351.98 456.02,-342.71 455.77,-334.11"/>
<polygon fill="black" stroke="black" points="459.27,-334 455.49,-324.1 452.28,-334.2 459.27,-334"/>
</g>
<!-- node_69 -->
<g id="node70" class="node">
<title>node_69</title>
<ellipse fill="none" stroke="black" cx="527" cy="-306" rx="27" ry="18"/>
<text text-anchor="middle" x="527" y="-302.3" font-family="Times,serif" font-size="14.00">)</text>
</g>
<!-- node_61&#45;&gt;node_69 -->
<g id="edge51" class="edge">
<title>node_61&#45;&gt;node_69</title>
<path fill="none" stroke="black" d="M471.5,-362.5C481.27,-352.73 494.31,-339.69 505.3,-328.7"/>
<polygon fill="black" stroke="black" points="507.92,-331.03 512.51,-321.49 502.97,-326.08 507.92,-331.03"/>
</g>
<!-- node_70 -->
<g id="node71" class="node">
<title>node_70</title>
<ellipse fill="none" stroke="black" cx="599" cy="-306" rx="27" ry="18"/>
<text text-anchor="middle" x="599" y="-302.3" font-family="Times,serif" font-size="14.00">K</text>
</g>
<!-- node_61&#45;&gt;node_70 -->
<g id="edge55" class="edge">
<title>node_61&#45;&gt;node_70</title>
<path fill="none" stroke="black" d="M478.26,-366.52C502.21,-354.72 541.32,-335.43 568.52,-322.03"/>
<polygon fill="black" stroke="black" points="570.17,-325.11 577.6,-317.55 567.08,-318.83 570.17,-325.11"/>
</g>
<!-- node_64 -->
<g id="node65" class="node">
<title>node_64</title>
<ellipse fill="none" stroke="black" cx="419" cy="-234" rx="27" ry="18"/>
<text text-anchor="middle" x="419" y="-230.3" font-family="Times,serif" font-size="14.00">l</text>
</g>
<!-- node_63&#45;&gt;node_64 -->
<g id="edge45" class="edge">
<title>node_63&#45;&gt;node_64</title>
<path fill="none" stroke="black" d="M446.65,-288.76C442.29,-280.28 436.85,-269.71 431.96,-260.2"/>
<polygon fill="black" stroke="black" points="434.99,-258.44 427.3,-251.15 428.77,-261.64 434.99,-258.44"/>
</g>
<!-- node_65 -->
<g id="node66" class="node">
<title>node_65</title>
<ellipse fill="none" stroke="black" cx="491" cy="-234" rx="27" ry="18"/>
<text text-anchor="middle" x="491" y="-230.3" font-family="Times,serif" font-size="14.00">K</text>
</g>
<!-- node_63&#45;&gt;node_65 -->
<g id="edge49" class="edge">
<title>node_63&#45;&gt;node_65</title>
<path fill="none" stroke="black" d="M463.35,-288.76C467.71,-280.28 473.15,-269.71 478.04,-260.2"/>
<polygon fill="black" stroke="black" points="481.23,-261.64 482.7,-251.15 475.01,-258.44 481.23,-261.64"/>
</g>
<!-- node_66 -->
<g id="node67" class="node">
<title>node_66</title>
<ellipse fill="none" stroke="black" cx="491" cy="-162" rx="27" ry="18"/>
<text text-anchor="middle" x="491" y="-158.3" font-family="Times,serif" font-size="14.00">T</text>
</g>
<!-- node_65&#45;&gt;node_66 -->
<g id="edge48" class="edge">
<title>node_65&#45;&gt;node_66</title>
<path fill="none" stroke="black" d="M491,-215.7C491,-207.98 491,-198.71 491,-190.11"/>
<polygon fill="black" stroke="black" points="494.5,-190.1 491,-180.1 487.5,-190.1 494.5,-190.1"/>
</g>
<!-- node_67 -->
<g id="node68" class="node">
<title>node_67</title>
<ellipse fill="none" stroke="black" cx="491" cy="-90" rx="27" ry="18"/>
<text text-anchor="middle" x="491" y="-86.3" font-family="Times,serif" font-size="14.00">S</text>
</g>
<!-- node_66&#45;&gt;node_67 -->
<g id="edge47" class="edge">
<title>node_66&#45;&gt;node_67</title>
<path fill="none" stroke="black" d="M491,-143.7C491,-135.98 491,-126.71 491,-118.11"/>
<polygon fill="black" stroke="black" points="494.5,-118.1 491,-108.1 487.5,-118.1 494.5,-118.1"/>
</g>
<!-- node_68 -->
<g id="node69" class="node">
<title>node_68</title>
<ellipse fill="none" stroke="black" cx="491" cy="-18" rx="27" ry="18"/>
<text text-anchor="middle" x="491" y="-14.3" font-family="Times,serif" font-size="14.00">eps</text>
</g>
<!-- node_67&#45;&gt;node_68 -->
<g id="edge46" class="edge">
<title>node_67&#45;&gt;node_68</title>
<path fill="none" stroke="black" d="M491,-71.7C491,-63.98 491,-54.71 491,-46.11"/>
<polygon fill="black" stroke="black" points="494.5,-46.1 491,-36.1 487.5,-46.1 494.5,-46.1"/>
</g>
<!-- node_71 -->
<g id="node72" class="node">
<title>node_71</title>
<ellipse fill="none" stroke="black" cx="599" cy="-234" rx="27" ry="18"/>
<text text-anchor="middle" x="599" y="-230.3" font-family="Times,serif" font-size="14.00">T</text>
</g>
<!-- node_70&#45;&gt;node_71 -->
<g id="edge54" class="edge">
<title>node_70&#45;&gt;node_71</title>
<path fill="none" stroke="black" d="M599,-287.7C599,-279.98 599,-270.71 599,-262.11"/>
<polygon fill="black" stroke="black" points="602.5,-262.1 599,-252.1 595.5,-262.1 602.5,-262.1"/>
</g>
<!-- node_72 -->
<g id="node73" class="node">
<title>node_72</title>
<ellipse fill="none" stroke="black" cx="599" cy="-162" rx="27" ry="18"/>
<text text-anchor="middle" x="599" y="-158.3" font-family="Times,serif" font-size="14.00">S</text>
</g>
<!-- node_71&#45;&gt;node_72 -->
<g id="edge53" class="edge">
<title>node_71&#45;&gt;node_72</title>
<path fill="none" stroke="black" d="M599,-215.7C599,-207.98 599,-198.71 599,-190.11"/>
<polygon fill="black" stroke="black" points="602.5,-190.1 599,-180.1 595.5,-190.1 602.5,-190.1"/>
</g>
<!-- node_73 -->
<g id="node74" class="node">
<title>node_73</title>
<ellipse fill="none" stroke="black" cx="599" cy="-90" rx="27" ry="18"/>
<text text-anchor="middle" x="599" y="-86.3" font-family="Times,serif" font-size="14.00">eps</text>
</g>
<!-- node_72&#45;&gt;node_73 -->
<g id="edge52" class="edge">
<title>node_72&#45;&gt;node_73</title>
<path fill="none" stroke="black" d="M599,-143.7C599,-135.98 599,-126.71 599,-118.11"/>
<polygon fill="black" stroke="black" points="602.5,-118.1 599,-108.1 595.5,-118.1 602.5,-118.1"/>
</g>
<!-- node_76 -->
<g id="node77" class="node">
<title>node_76</title>
<ellipse fill="none" stroke="black" cx="470" cy="-882" rx="27" ry="18"/>
<text text-anchor="middle" x="470" y="-878.3" font-family="Times,serif" font-size="14.00">T</text>
</g>
<!-- node_75&#45;&gt;node_76 -->
<g id="edge68" class="edge">
<title>node_75&#45;&gt;node_76</title>
<path fill="none" stroke="black" d="M470,-935.7C470,-927.98 470,-918.71 470,-910.11"/>
<polygon fill="black" stroke="black" points="473.5,-910.1 470,-900.1 466.5,-910.1 473.5,-910.1"/>
</g>
<!-- node_77 -->
<g id="node78" class="node">
<title>node_77</title>
<ellipse fill="none" stroke="black" cx="470" cy="-810" rx="27" ry="18"/>
<text text-anchor="middle" x="470" y="-806.3" font-family="Times,serif" font-size="14.00">S</text>
</g>
<!-- node_76&#45;&gt;node_77 -->
<g id="edge67" class="edge">
<title>node_76&#45;&gt;node_77</title>
<path fill="none" stroke="black" d="M470,-863.7C470,-855.98 470,-846.71 470,-838.11"/>
<polygon fill="black" stroke="black" points="473.5,-838.1 470,-828.1 466.5,-838.1 473.5,-838.1"/>
</g>
<!-- node_78 -->
<g id="node79" class="node">
<title>node_78</title>
<ellipse fill="none" stroke="black" cx="470" cy="-738" rx="27" ry="18"/>
<text text-anchor="middle" x="470" y="-734.3" font-family="Times,serif" font-size="14.00">eps</text>
</g>
<!-- node_77&#45;&gt;node_78 -->
<g id="edge66" class="edge">
<title>node_77&#45;&gt;node_78</title>
<path fill="none" stroke="black" d="M470,-791.7C470,-783.98 470,-774.71 470,-766.11"/>
<polygon fill="black" stroke="black" points="473.5,-766.1 470,-756.1 466.5,-766.1 473.5,-766.1"/>
</g>
<!-- node_81 -->
<g id="node82" class="node">
<title>node_81</title>
<ellipse fill="none" stroke="black" cx="494" cy="-1242" rx="27" ry="18"/>
<text text-anchor="middle" x="494" y="-1238.3" font-family="Times,serif" font-size="14.00">T</text>
</g>
<!-- node_80&#45;&gt;node_81 -->
<g id="edge83" class="edge">
<title>node_80&#45;&gt;node_81</title>
<path fill="none" stroke="black" d="M494,-1295.7C494,-1287.98 494,-1278.71 494,-1270.11"/>
<polygon fill="black" stroke="black" points="497.5,-1270.1 494,-1260.1 490.5,-1270.1 497.5,-1270.1"/>
</g>
<!-- node_82 -->
<g id="node83" class="node">
<title>node_82</title>
<ellipse fill="none" stroke="black" cx="494" cy="-1170" rx="27" ry="18"/>
<text text-anchor="middle" x="494" y="-1166.3" font-family="Times,serif" font-size="14.00">S</text>
</g>
<!-- node_81&#45;&gt;node_82 -->
<g id="edge82" class="edge">
<title>node_81&#45;&gt;node_82</title>
<path fill="none" stroke="black" d="M494,-1223.7C494,-1215.98 494,-1206.71 494,-1198.11"/>
<polygon fill="black" stroke="black" points="497.5,-1198.1 494,-1188.1 490.5,-1198.1 497.5,-1198.1"/>
</g>
<!-- node_83 -->
<g id="node84" class="node">
<title>node_83</title>
<ellipse fill="none" stroke="black" cx="494" cy="-1098" rx="27" ry="18"/>
<text text-anchor="middle" x="494" y="-1094.3" font-family="Times,serif" font-size="14.00">NE</text>
</g>
<!-- node_82&#45;&gt;node_83 -->
<g id="edge81" class="edge">
<title>node_82&#45;&gt;node_83</title>
<path fill="none" stroke="black" d="M494,-1151.7C494,-1143.98 494,-1134.71 494,-1126.11"/>
<polygon fill="black" stroke="black" points="497.5,-1126.1 494,-1116.1 490.5,-1126.1 497.5,-1126.1"/>
</g>
<!-- node_84 -->
<g id="node85" class="node">
<title>node_84</title>
<ellipse fill="none" stroke="black" cx="475" cy="-1026" rx="27" ry="18"/>
<text text-anchor="middle" x="475" y="-1022.3" font-family="Times,serif" font-size="14.00">d</text>
</g>
<!-- node_83&#45;&gt;node_84 -->
<g id="edge76" class="edge">
<title>node_83&#45;&gt;node_84</title>
<path fill="none" stroke="black" d="M489.4,-1080.05C487.25,-1072.14 484.65,-1062.54 482.24,-1053.69"/>
<polygon fill="black" stroke="black" points="485.55,-1052.52 479.56,-1043.79 478.8,-1054.36 485.55,-1052.52"/>
</g>
<!-- node_85 -->
<g id="node86" class="node">
<title>node_85</title>
<ellipse fill="none" stroke="black" cx="547" cy="-1026" rx="27" ry="18"/>
<text text-anchor="middle" x="547" y="-1022.3" font-family="Times,serif" font-size="14.00">K</text>
</g>
<!-- node_83&#45;&gt;node_85 -->
<g id="edge80" class="edge">
<title>node_83&#45;&gt;node_85</title>
<path fill="none" stroke="black" d="M505.76,-1081.46C512.62,-1072.4 521.42,-1060.79 529.12,-1050.61"/>
<polygon fill="black" stroke="black" points="532.02,-1052.58 535.27,-1042.49 526.44,-1048.35 532.02,-1052.58"/>
</g>
<!-- node_86 -->
<g id="node87" class="node">
<title>node_86</title>
<ellipse fill="none" stroke="black" cx="547" cy="-954" rx="27" ry="18"/>
<text text-anchor="middle" x="547" y="-950.3" font-family="Times,serif" font-size="14.00">T</text>
</g>
<!-- node_85&#45;&gt;node_86 -->
<g id="edge79" class="edge">
<title>node_85&#45;&gt;node_86</title>
<path fill="none" stroke="black" d="M547,-1007.7C547,-999.98 547,-990.71 547,-982.11"/>
<polygon fill="black" stroke="black" points="550.5,-982.1 547,-972.1 543.5,-982.1 550.5,-982.1"/>
</g>
<!-- node_87 -->
<g id="node88" class="node">
<title>node_87</title>
<ellipse fill="none" stroke="black" cx="547" cy="-882" rx="27" ry="18"/>
<text text-anchor="middle" x="547" y="-878.3" font-family="Times,serif" font-size="14.00">S</text>
</g>
<!-- node_86&#45;&gt;node_87 -->
<g id="edge78" class="edge">
<title>node_86&#45;&gt;node_87</title>
<path fill="none" stroke="black" d="M547,-935.7C547,-927.98 547,-918.71 547,-910.11"/>
<polygon fill="black" stroke="black" points="550.5,-910.1 547,-900.1 543.5,-910.1 550.5,-910.1"/>
</g>
<!-- node_88 -->
<g id="node89" class="node">
<title>node_88</title>
<ellipse fill="none" stroke="black" cx="547" cy="-810" rx="27" ry="18"/>
<text text-anchor="middle" x="547" y="-806.3" font-family="Times,serif" font-size="14.00">eps</text>
</g>
<!-- node_87&#45;&gt;node_88 -->
<g id="edge77" class="edge">
<title>node_87&#45;&gt;node_88</title>
<path fill="none" stroke="black" d="M547,-863.7C547,-855.98 547,-846.71 547,-838.11"/>
<polygon fill="black" stroke="black" points="550.5,-838.1 547,-828.1 543.5,-838.1 550.5,-838.1"/>
</g>
</g>
</svg>
